#!OML:ASF H:\Terrain\Patient Classification 1\Terrain2\Thursday\justin.ASF
:FULLY-SPECIFIED
:DEGREES
3593
root -13.3129 17.6698 9.49728 710.639 52.539 -730.906
lowerback 11.3126 3.34569 10.9059
upperback 3.71268 5.88434 4.04991
thorax -1.74948 3.0102 -2.54712
lowerneck -14.2052 0.047601 -7.19936
upperneck 37.4501 3.47176 0.205462
head 15.476 0.848405 2.05629
rclavicle 2.80286e-014 6.36111e-015
rhumerus -28.1275 5.48725 -85.1011
rradius 31.2365
rwrist -8.86622
rhand -21.0336 13.1783
rfingers 7.12502
rthumb 5.34194 -16.7343
lclavicle 2.80286e-014 6.36111e-015
lhumerus -32.1142 -1.81061 88.3341
lradius 44.7988
lwrist 6.7595
lhand -18.263 20.6463
lfingers 7.12502
lthumb 8.0165 50.4743
rfemur -3.24 -20.01 32.6704
rtibia 22.9246
rfoot -16.7877 -26.9347
rtoes 19.5879
lfemur -40.2319 7.53629 -11.9043
ltibia 81.8406
lfoot -23.4969 -15.0326
ltoes -5.07424
3594
root -13.3076 17.6786 9.51797 710.051 53.8364 -731.38
lowerback 11.3511 3.30234 11.09
upperback 3.74508 5.85727 4.08486
thorax -1.72414 3.00218 -2.60835
lowerneck -14.2236 0.0560901 -7.1895
upperneck 37.5264 3.48126 0.2954
head 15.5145 0.872281 2.09909
rclavicle 8.78628e-014 -1.11319e-014
rhumerus -28.1653 5.89547 -85.0258
rradius 31.5353
rwrist -9.28101
rhand -21.2608 13.2343
rfingers 7.12502
rthumb 5.12257 -16.6838
lclavicle 8.78628e-014 -1.11319e-014
lhumerus -32.0062 -1.28076 88.2545
lradius 44.8597
lwrist 6.24747
lhand -17.8612 20.0437
lfingers 7.12502
lthumb 8.4043 49.8565
rfemur -2.85533 -20.4574 32.7926
rtibia 22.4259
rfoot -16.7413 -27.5534
rtoes 19.6849
lfemur -41.2345 7.43171 -11.8231
ltibia 83.2143
lfoot -23.5426 -15.1618
ltoes -4.02328
3595
root -13.303 17.6938 9.55099 710.12 55.1341 -731.071
lowerback 11.3215 3.38152 10.5982
upperback 3.829 5.901 4.11183
thorax -1.66949 3.02894 -2.31441
lowerneck -14.1601 -0.00993101 -7.17869
upperneck 37.2766 3.38137 0.249506
head 15.3822 0.838671 2.05499
rclavicle 6.42074e-014 1.11319e-014
rhumerus -28.0658 5.99792 -84.7128
rradius 31.8207
rwrist -9.45682
rhand -21.1319 13.1006
rfingers 7.12502
rthumb 5.24698 -16.8145
lclavicle 6.42074e-014 1.11319e-014
lhumerus -31.7491 -0.977293 88.3752
lradius 44.6895
lwrist 5.98563
lhand -17.952 19.9636
lfingers 7.12502
lthumb 8.31666 49.7799
rfemur -2.45804 -20.6895 32.4551
rtibia 21.9246
rfoot -16.8602 -28.2379
rtoes 20.5011
lfemur -42.1443 7.41023 -12.2804
ltibia 84.4423
lfoot -24.027 -14.8905
ltoes -5.45143
3596
root -13.2926 17.709 9.58459 710.104 56.3454 -730.899
lowerback 11.2554 3.37011 10.1627
upperback 3.86003 5.82939 4.10857
thorax -1.65443 2.99441 -2.07042
lowerneck -14.0948 -0.027528 -7.154
upperneck 37.1153 3.36662 0.180678
head 15.2911 0.836447 2.01515
rclavicle 6.02318e-014 -5.24792e-014
rhumerus -28.1031 6.34699 -84.7356
rradius 32.1729
rwrist -9.87793
rhand -21.1944 12.7404
rfingers 7.12502
rthumb 5.18663 -17.1761
lclavicle 6.02318e-014 -5.24792e-014
lhumerus -31.8206 -0.796605 88.3803
lradius 44.7981
lwrist 6.3609
lhand -18.8293 20.3796
lfingers 7.12502
lthumb 7.46995 50.2277
rfemur -2.07257 -20.94 32.221
rtibia 21.4007
rfoot -16.5451 -29.0296
rtoes 20.0898
lfemur -43.0453 7.45443 -12.6363
ltibia 85.6156
lfoot -24.8556 -14.4673
ltoes -7.62313
3597
root -13.2796 17.7145 9.61064 708.853 57.3795 -732.176
lowerback 11.3058 3.26184 10.6526
upperback 3.82012 5.76115 4.20591
thorax -1.69135 2.9623 -2.23195
lowerneck -14.1476 -0.0514404 -7.29659
upperneck 37.1838 3.36353 0.293106
head 15.3327 0.833874 2.09141
rclavicle -4.09496e-014 1.59028e-015
rhumerus -28.3188 7.11383 -85.0304
rradius 32.6033
rwrist -10.8547
rhand -21.2206 12.5269
rfingers 7.12502
rthumb 5.16136 -17.3902
lclavicle -4.09496e-014 1.59028e-015
lhumerus -32.0621 -0.329015 88.0849
lradius 45.0504
lwrist 6.31608
lhand -18.6901 20.2843
lfingers 7.12502
lthumb 7.60429 50.1276
rfemur -1.71098 -21.3867 32.811
rtibia 20.9465
rfoot -16.3229 -29.6131
rtoes 20.145
lfemur -44.0611 7.66376 -12.0834
ltibia 86.7757
lfoot -25.5789 -14.2034
ltoes -8.94935
